<mxfile host="app.diagrams.net" agent="Mozilla/5.0 (Windows NT 10.0; Win64; x64) AppleWebKit/537.36 (KHTML, like Gecko) Chrome/131.0.0.0 Safari/537.36" version="24.8.8">
  <diagram name="第 1 页" id="MyWPbtvvegczRtQhynBv">
    <mxGraphModel dx="1134" dy="774" grid="1" gridSize="10" guides="1" tooltips="1" connect="1" arrows="1" fold="1" page="1" pageScale="1" pageWidth="827" pageHeight="1169" math="0" shadow="0">
      <root>
        <mxCell id="0" />
        <mxCell id="1" parent="0" />
        <mxCell id="-emtW5AfLr4qhfeCGVda-9" style="edgeStyle=none;curved=1;rounded=0;orthogonalLoop=1;jettySize=auto;html=1;exitX=0.5;exitY=1;exitDx=0;exitDy=0;entryX=0.5;entryY=0;entryDx=0;entryDy=0;fontSize=12;startSize=8;endSize=8;labelBackgroundColor=default;fontColor=#100e0e;" edge="1" parent="1" source="-emtW5AfLr4qhfeCGVda-4" target="-emtW5AfLr4qhfeCGVda-5">
          <mxGeometry relative="1" as="geometry" />
        </mxCell>
        <mxCell id="-emtW5AfLr4qhfeCGVda-4" value="&lt;div style=&quot;&quot;&gt;&lt;pre style=&quot;font-family: &amp;quot;JetBrains Mono&amp;quot;, monospace; font-size: 9.8pt;&quot;&gt;&lt;font&gt;&lt;span style=&quot;&quot;&gt;quick&lt;/span&gt;&lt;span style=&quot;&quot;&gt;listPush&lt;/span&gt;&lt;/font&gt;&lt;/pre&gt;&lt;/div&gt;" style="rounded=0;whiteSpace=wrap;html=1;align=center;labelBackgroundColor=default;fontColor=#100e0e;" vertex="1" parent="1">
          <mxGeometry x="270" y="40" width="120" height="60" as="geometry" />
        </mxCell>
        <mxCell id="-emtW5AfLr4qhfeCGVda-5" value="判断头部尾部" style="rhombus;whiteSpace=wrap;html=1;labelBackgroundColor=default;fontColor=#100e0e;" vertex="1" parent="1">
          <mxGeometry x="290" y="160" width="80" height="80" as="geometry" />
        </mxCell>
        <mxCell id="-emtW5AfLr4qhfeCGVda-6" value="&lt;div style=&quot;&quot;&gt;&lt;pre style=&quot;font-family: &amp;quot;JetBrains Mono&amp;quot;, monospace; font-size: 9.8pt;&quot;&gt;&lt;div style=&quot;&quot;&gt;&lt;pre style=&quot;font-family:&#39;JetBrains Mono&#39;,monospace;font-size:9.8pt;&quot;&gt;quicklistPushHead&lt;/pre&gt;&lt;/div&gt;&lt;/pre&gt;&lt;/div&gt;" style="rounded=0;whiteSpace=wrap;html=1;align=center;labelBackgroundColor=default;fontColor=#100e0e;" vertex="1" parent="1">
          <mxGeometry x="110" y="300" width="120" height="60" as="geometry" />
        </mxCell>
        <mxCell id="-emtW5AfLr4qhfeCGVda-7" value="&lt;div style=&quot;&quot;&gt;&lt;pre style=&quot;font-family: &amp;quot;JetBrains Mono&amp;quot;, monospace; font-size: 9.8pt;&quot;&gt;&lt;div style=&quot;&quot;&gt;&lt;pre style=&quot;font-family:&#39;JetBrains Mono&#39;,monospace;font-size:9.8pt;&quot;&gt;quicklistPushTail&lt;/pre&gt;&lt;/div&gt;&lt;/pre&gt;&lt;/div&gt;" style="rounded=0;whiteSpace=wrap;html=1;align=center;labelBackgroundColor=default;fontColor=#100e0e;" vertex="1" parent="1">
          <mxGeometry x="440" y="300" width="120" height="60" as="geometry" />
        </mxCell>
        <mxCell id="-emtW5AfLr4qhfeCGVda-10" style="edgeStyle=none;curved=1;rounded=0;orthogonalLoop=1;jettySize=auto;html=1;exitX=0;exitY=0.5;exitDx=0;exitDy=0;entryX=0.424;entryY=-0.019;entryDx=0;entryDy=0;entryPerimeter=0;fontSize=12;startSize=8;endSize=8;labelBackgroundColor=default;fontColor=#100e0e;" edge="1" parent="1" source="-emtW5AfLr4qhfeCGVda-5" target="-emtW5AfLr4qhfeCGVda-6">
          <mxGeometry relative="1" as="geometry">
            <Array as="points">
              <mxPoint x="200" y="200" />
            </Array>
          </mxGeometry>
        </mxCell>
        <mxCell id="-emtW5AfLr4qhfeCGVda-11" style="edgeStyle=none;curved=1;rounded=0;orthogonalLoop=1;jettySize=auto;html=1;exitX=1;exitY=0.5;exitDx=0;exitDy=0;entryX=0.576;entryY=0.02;entryDx=0;entryDy=0;entryPerimeter=0;fontSize=12;startSize=8;endSize=8;labelBackgroundColor=default;fontColor=#100e0e;" edge="1" parent="1" source="-emtW5AfLr4qhfeCGVda-5" target="-emtW5AfLr4qhfeCGVda-7">
          <mxGeometry relative="1" as="geometry">
            <Array as="points">
              <mxPoint x="500" y="210" />
            </Array>
          </mxGeometry>
        </mxCell>
      </root>
    </mxGraphModel>
  </diagram>
</mxfile>
